<?xml version="1.0" encoding="utf-8"?>
<!-- Generator: Adobe Illustrator 23.0.2, SVG Export Plug-In . SVG Version: 6.00 Build 0)  -->
<svg version="1.1" id="Capa_1" xmlns="http://www.w3.org/2000/svg" xmlns:xlink="http://www.w3.org/1999/xlink" x="0px" y="0px"
	 viewBox="0 0 510 510" style="enable-background:new 0 0 510 510;" xml:space="preserve">
<style type="text/css">
	.st0{fill:#FFCE00;}
</style>
<polygon class="st0" points="298.6,220.1 255,117.2 211.4,220.1 99.7,229.7 184.4,303.1 159,412.2 255,354.3 351,412.2 325.6,303.1 
	410.3,229.7 "/>
<path class="st0" d="M326.6,181.7L255,12.8l-71.6,169L0,197.5L139.1,318L97.4,497.2L255,402.2l157.6,95.1L370.9,318L510,197.5
	L326.6,181.7z M351,412.2l-96-57.9l-96,57.9l25.4-109.2l-84.7-73.4l111.7-9.6L255,117.2l43.6,102.9l111.7,9.6l-84.7,73.4L351,412.2z
	"/>
</svg>
